<svg id="visual" viewBox="0 0 900 600" width="900" height="600" xmlns="http://www.w3.org/2000/svg" xmlns:xlink="http://www.w3.org/1999/xlink" version="1.1"><path d="M0 400L21.5 404.7C43 409.3 86 418.7 128.8 430.3C171.7 442 214.3 456 257.2 457.2C300 458.3 343 446.7 385.8 445.3C428.7 444 471.3 453 514.2 442.8C557 432.7 600 403.3 642.8 399.8C685.7 396.3 728.3 418.7 771.2 429.8C814 441 857 441 878.5 441L900 441L900 601L878.5 601C857 601 814 601 771.2 601C728.3 601 685.7 601 642.8 601C600 601 557 601 514.2 601C471.3 601 428.7 601 385.8 601C343 601 300 601 257.2 601C214.3 601 171.7 601 128.8 601C86 601 43 601 21.5 601L0 601Z" fill="#f78c34"></path><path d="M0 508L21.5 507.8C43 507.7 86 507.3 128.8 498.3C171.7 489.3 214.3 471.7 257.2 459.7C300 447.7 343 441.3 385.8 443.3C428.7 445.3 471.3 455.7 514.2 462.7C557 469.7 600 473.3 642.8 476.5C685.7 479.7 728.3 482.3 771.2 476.5C814 470.7 857 456.3 878.5 449.2L900 442L900 601L878.5 601C857 601 814 601 771.2 601C728.3 601 685.7 601 642.8 601C600 601 557 601 514.2 601C471.3 601 428.7 601 385.8 601C343 601 300 601 257.2 601C214.3 601 171.7 601 128.8 601C86 601 43 601 21.5 601L0 601Z" fill="#fa9e37"></path><path d="M0 516L21.5 523.5C43 531 86 546 128.8 549.2C171.7 552.3 214.3 543.7 257.2 534.8C300 526 343 517 385.8 520C428.7 523 471.3 538 514.2 545.7C557 553.3 600 553.7 642.8 546.2C685.7 538.7 728.3 523.3 771.2 513.5C814 503.7 857 499.3 878.5 497.2L900 495L900 601L878.5 601C857 601 814 601 771.2 601C728.3 601 685.7 601 642.8 601C600 601 557 601 514.2 601C471.3 601 428.7 601 385.8 601C343 601 300 601 257.2 601C214.3 601 171.7 601 128.8 601C86 601 43 601 21.5 601L0 601Z" fill="#fcaf3c"></path></svg>