<svg id="visual" viewBox="0 0 900 600" width="900" height="600" xmlns="http://www.w3.org/2000/svg" xmlns:xlink="http://www.w3.org/1999/xlink" version="1.1"><path d="M0 321L21.5 327.5C43 334 86 347 128.8 363.2C171.7 379.3 214.3 398.7 257.2 400.2C300 401.7 343 385.3 385.8 383.5C428.7 381.7 471.3 394.3 514.2 380.2C557 366 600 325 642.8 320C685.7 315 728.3 346 771.2 361.5C814 377 857 377 878.5 377L900 377L900 601L878.5 601C857 601 814 601 771.2 601C728.3 601 685.7 601 642.8 601C600 601 557 601 514.2 601C471.3 601 428.7 601 385.8 601C343 601 300 601 257.2 601C214.3 601 171.7 601 128.8 601C86 601 43 601 21.5 601L0 601Z" fill="#fcaf3c"></path><path d="M0 471L21.5 470.8C43 470.7 86 470.3 128.8 457.7C171.7 445 214.3 420 257.2 403.2C300 386.3 343 377.7 385.8 380.7C428.7 383.7 471.3 398.3 514.2 408.3C557 418.3 600 423.7 642.8 428.2C685.7 432.7 728.3 436.3 771.2 428C814 419.7 857 399.3 878.5 389.2L900 379L900 601L878.5 601C857 601 814 601 771.2 601C728.3 601 685.7 601 642.8 601C600 601 557 601 514.2 601C471.3 601 428.7 601 385.8 601C343 601 300 601 257.2 601C214.3 601 171.7 601 128.8 601C86 601 43 601 21.5 601L0 601Z" fill="#fa9424"></path><path d="M0 483L21.5 493.3C43 503.7 86 524.3 128.8 528.8C171.7 533.3 214.3 521.7 257.2 509.3C300 497 343 484 385.8 488C428.7 492 471.3 513 514.2 523.8C557 534.7 600 535.3 642.8 524.8C685.7 514.3 728.3 492.7 771.2 478.8C814 465 857 459 878.5 456L900 453L900 601L878.5 601C857 601 814 601 771.2 601C728.3 601 685.7 601 642.8 601C600 601 557 601 514.2 601C471.3 601 428.7 601 385.8 601C343 601 300 601 257.2 601C214.3 601 171.7 601 128.8 601C86 601 43 601 21.5 601L0 601Z" fill="#f7770f"></path></svg>