<svg id="visual" viewBox="0 0 900 600" width="900" height="600" xmlns="http://www.w3.org/2000/svg" xmlns:xlink="http://www.w3.org/1999/xlink" version="1.1"><path d="M0 317L18.8 323.2C37.7 329.3 75.3 341.7 112.8 355.8C150.3 370 187.7 386 225.2 381.7C262.7 377.3 300.3 352.7 337.8 351.7C375.3 350.7 412.7 373.3 450.2 383C487.7 392.7 525.3 389.3 562.8 383.8C600.3 378.3 637.7 370.7 675.2 364.3C712.7 358 750.3 353 787.8 356C825.3 359 862.7 370 881.3 375.5L900 381L900 601L881.3 601C862.7 601 825.3 601 787.8 601C750.3 601 712.7 601 675.2 601C637.7 601 600.3 601 562.8 601C525.3 601 487.7 601 450.2 601C412.7 601 375.3 601 337.8 601C300.3 601 262.7 601 225.2 601C187.7 601 150.3 601 112.8 601C75.3 601 37.7 601 18.8 601L0 601Z" fill="#FCAF3C" stroke-linecap="round" stroke-linejoin="miter"></path></svg>